<svg width="450" height="361" viewBox="0 0 450 361" fill="none" xmlns="http://www.w3.org/2000/svg">
<g id="Group 1">
<path id="y-1" d="M0 33.5C0 14.9985 14.9985 0 33.5 0H450V67H33.5C14.9985 67 0 52.0015 0 33.5Z" fill="#E8D107"/>
<path id="y-2" d="M185 131.5C185 112.998 199.998 98 218.5 98H450V165H218.5C199.998 165 185 150.002 185 131.5Z" fill="#E8D107"/>
<path id="r-1" d="M89 229.5C89 210.998 103.998 196 122.5 196H450V263H122.5C103.998 263 89 248.002 89 229.5Z" fill="#DA3232"/>
<path id="y-3" d="M333 327.5C333 308.998 347.998 294 366.5 294H450V361H366.5C347.998 361 333 346.002 333 327.5Z" fill="#E8D107"/>
</g>
</svg>
